<svg version="1.0" xmlns="http://www.w3.org/2000/svg" width="933.333" height="933.333" viewBox="0 0 700 700"><path d="M321.5 1.1c-69.6 5.7-136.4 32.3-191 75.9-15.4 12.3-38.6 35.2-50.8 50.1-126.2 154.5-99.4 382.5 59 502.1 51.4 38.7 107 60.7 174.8 69 13 1.6 60 1.6 73 0 57.5-7 106.2-23.9 151.1-52.5C653.9 571.7 716 436.6 696.4 300c-9.1-63.5-35.2-122.7-76.1-172.9-18.8-23-49.2-50.6-73.5-66.9C508 34.3 465.6 16.3 423 7.6c-34-6.9-69.2-9.1-101.5-6.5zM350.9 316c27.7 46.2 50.6 84 50.7 84 .2 0 .4-29.8.4-66.3v-66.3l-13-2.4-13-2.3V232l51.3.2 51.2.3v29.9l-13 2.6-13 2.6-.3 106.7L452 481h-49.9l-50.3-83.8-50.3-83.7-.3 65.9c-.1 36.3.1 66.3.5 66.6.5.4 6.3 1.7 13.1 2.9l12.2 2.3V481H224v-14.4c0-8 .4-14.7.9-15 .5-.3 5.8-1.5 11.7-2.6 6-1.2 11.7-2.3 12.7-2.6 1.6-.5 1.7-5.4 1.5-89.7l-.3-89.1-13-2.6-13-2.6-.3-13.9c-.1-7.6 0-14.5.2-15.2.4-1 8.3-1.3 38.3-1.3h37.8l50.4 84z"/></svg>