<?xml version="1.0" standalone="no"?>
<!DOCTYPE svg PUBLIC "-//W3C//DTD SVG 20010904//EN"
 "http://www.w3.org/TR/2001/REC-SVG-20010904/DTD/svg10.dtd">
<svg version="1.0" xmlns="http://www.w3.org/2000/svg"
 width="700.000000pt" height="700.000000pt" viewBox="0 0 700.000000 700.000000"
 preserveAspectRatio="xMidYMid meet">
<metadata>
Created by potrace 1.11, written by Peter Selinger 2001-2013
</metadata>
<g transform="translate(0.000000,700.000000) scale(0.100000,-0.100000)"
fill="#000000" stroke="none">
<path d="M3215 6989 c-696 -57 -1364 -323 -1910 -759 -154 -123 -386 -352
-508 -501 -1262 -1545 -994 -3825 590 -5021 514 -387 1070 -607 1748 -690 130
-16 600 -16 730 0 575 70 1062 239 1511 525 1163 740 1784 2091 1588 3457 -91
635 -352 1227 -761 1729 -188 230 -492 506 -735 669 -388 259 -812 439 -1238
526 -340 69 -692 91 -1015 65z m294 -3149 c277 -462 506 -840 507 -840 2 0 4
298 4 663 l0 663 -130 24 -130 23 0 154 0 153 513 -2 512 -3 0 -150 0 -149
-130 -26 -130 -26 -3 -1067 -2 -1067 -250 0 -249 0 -503 838 -503 837 -3 -659
c-1 -363 1 -663 5 -666 5 -4 63 -17 131 -29 l122 -23 0 -149 0 -149 -515 0
-515 0 0 144 c0 80 4 147 9 150 5 3 58 15 117 26 60 12 117 23 127 26 16 5 17
54 15 897 l-3 891 -130 26 -130 26 -3 139 c-1 76 0 145 2 152 4 10 83 13 383
13 l378 0 504 -840z"/>
</g>
</svg>
